<?xml version="1.0" encoding="UTF-8"?>
<svg version="1.1" xmlns="http://www.w3.org/2000/svg" width="1254" height="1254">
<path d="M0 0 C413.82 0 827.64 0 1254 0 C1254 413.82 1254 827.64 1254 1254 C840.18 1254 426.36 1254 0 1254 C0 840.18 0 426.36 0 0 Z " fill="#F49712" transform="translate(0,0)"/>
<path d="M0 0 C1.87867759 1.55004331 3.70592793 3.1638472 5.48631382 4.82586098 C6.25353018 5.54128224 6.25353018 5.54128224 7.03624586 6.27115647 C13.6542316 12.48648482 20.0573174 18.92227087 26.46897888 25.34872437 C27.89449041 26.77379893 29.32022203 28.19865336 30.74615246 29.62330878 C34.63377115 33.50870683 38.51829082 37.39718996 42.40228069 41.28621507 C46.60283846 45.4911125 50.80630775 49.6930977 55.00941467 53.89544678 C62.75506577 61.64054081 70.49849918 69.38784748 78.24085877 77.13623176 C85.39092108 84.29181011 92.54213221 91.44623816 99.69444466 98.59956741 C100.40747385 99.31269971 100.40747385 99.31269971 101.13490767 100.04023872 C103.549407 102.45507644 105.96392484 104.86989565 108.37844981 107.28470774 C125.45539283 124.36374793 142.53001951 141.44510211 159.60327148 158.52783203 C176.17078106 175.10452806 192.73934189 191.68017219 209.30932617 208.25439453 C209.82028777 208.76548766 210.33124938 209.27658079 210.85769467 209.80316159 C215.98984665 214.93663231 221.12202008 220.07008159 226.2542093 225.20351509 C236.72078879 235.67263293 247.18722713 246.14189188 257.65357971 256.61123657 C258.13509937 257.09289352 258.61661904 257.57455048 259.1127302 258.07080309 C288.21286402 287.17926308 317.31025393 316.29046583 346.40698713 345.40232503 C347.02485545 346.02051046 347.64272378 346.63869588 348.27931538 347.2756142 C349.40892101 348.40580035 350.5385217 349.53599143 351.668116 350.6661889 C354.0143963 353.01366853 356.36104432 355.36077473 358.70880085 357.70677817 C360.34911164 359.34853703 361.98324725 360.99647479 363.61328125 362.6484375 C369.72423334 368.82318022 369.72423334 368.82318022 376.1875 374.625 C379.8734226 377.7606724 382.95752395 381.27703352 386.12109375 384.9296875 C388.55306416 387.60940542 391.17576283 389.74061027 394 392 C395.67855782 393.65469006 397.34289007 395.32383108 399 397 C400.08660041 398.0815998 401.17451127 399.16188408 402.26346302 400.24111652 C402.86414532 400.83686523 403.46482761 401.43261393 404.0837124 402.04641563 C404.72904339 402.68628966 405.37437439 403.3261637 406.03926086 403.98542786 C407.48790681 405.42234077 408.93652388 406.8592828 410.38511658 408.29624939 C411.15548185 409.06041105 411.92584713 409.82457272 412.71955681 410.61189079 C429.95266088 427.70755724 447.16507363 444.82390008 464.36323263 461.95471 C466.9076103 464.48908517 469.45216381 467.02328372 471.99682617 469.55737305 C472.50329531 470.0617437 473.00976444 470.56611435 473.53158113 471.08576896 C481.72399358 479.2434055 489.93044213 487.38678015 498.14217994 495.52495757 C506.59172889 503.89945151 515.02581198 512.28929344 523.44600838 520.69330043 C528.1663753 525.40372283 532.89392268 530.10655203 537.63848305 534.79264259 C542.10721603 539.20674283 546.55644776 543.63962274 550.99195862 548.08709717 C552.61510541 549.70805854 554.24502509 551.32227332 555.88245201 552.92880821 C567.52777579 564.36525565 578.93363684 576.70163201 579.24145508 593.93945312 C579.26875803 601.12246978 579.23481834 607.42601433 576 614 C575.6596875 614.7321875 575.319375 615.464375 574.96875 616.21875 C568.27687296 629.42164254 558.47614903 636.40592253 544.71484375 641.046875 C533.44263551 643.93900834 522.01448313 642.25671665 511.77157593 636.81642151 C502.69388909 631.43932492 495.7716384 624.26338021 488.42578125 616.78125 C487.04915276 615.39459436 485.67154519 614.00891012 484.29301453 612.62414551 C480.6887283 608.99906649 477.09619917 605.3625692 473.5065918 601.72296143 C467.75576074 595.89646154 461.98595006 590.08874016 456.21816063 584.27903748 C454.21876757 582.26211324 452.2237563 580.24094149 450.22956848 578.21887207 C442.12744177 570.00792366 442.12744177 570.00792366 433.54460144 562.30603027 C431.20274723 560.32588678 429.07015317 558.26423003 427 556 C427 555.34 427 554.68 427 554 C426.46246094 553.78988281 425.92492187 553.57976563 425.37109375 553.36328125 C422.09661712 551.48059205 419.6682841 548.87786636 417.0625 546.1875 C416.55009766 545.66607422 416.03769531 545.14464844 415.50976562 544.60742188 C414.53936935 543.61976315 413.57106293 542.63004273 412.60571289 541.63745117 C410.42011979 539.40865797 408.20809948 537.20645025 406 535 C404.90146794 533.90155381 403.80298192 532.80306158 402.70453262 531.70453262 C401.79084703 530.79084703 401.79084703 530.79084703 400.85870314 529.85870314 C341.75014353 470.75014353 282.64158392 411.64158392 -29.96875 99.03125 C-30.67080566 98.32983887 -31.37286133 97.62842773 -32.09619141 96.90576172 C-33.62878093 95.3715999 -35.15522638 93.83130159 -36.6796875 92.2890625 C-39.26318312 89.74036144 -41.93154472 87.30709574 -44.625 84.875 C-46.75562392 82.92272923 -48.8778985 80.96152415 -51 79 C-51.49935059 78.54286621 -51.99870117 78.08573242 -52.51318359 77.61474609 C-64.02404367 67.00023918 -71.81940346 54.83477096 -73.2734375 39.02734375 C-73.69182679 26.29865406 -69.46933638 16.37347033 -61 7 C-60.25169922 6.07960938 -60.25169922 6.07960938 -59.48828125 5.140625 C-44.15042973 -12.32211779 -18.42297658 -11.22846384 0 0 Z " fill="#0A0F1D" transform="translate(398,299)"/>
<path d="M0 0 C0 0.66 0 1.32 0 2 C0.88399475 2.23924698 1.7679895 2.47849396 2.67877197 2.72499084 C6.36075337 4.1384921 8.28614024 5.69459121 11.13964844 8.40014648 C11.64229092 8.87428451 12.1449334 9.34842253 12.66280746 9.83692837 C14.4567973 11.54312572 16.23024677 13.26867535 18 15 C18.69414505 15.67897968 19.3882901 16.35795937 20.10346985 17.05751419 C26.02527812 22.86976778 31.89719919 28.73159077 37.765625 34.59765625 C39.175996 36.00562394 40.58636808 37.41359054 41.99686313 38.82143396 C46.40736458 43.22386247 50.81508306 47.62906378 55.22119141 52.03588867 C59.76343076 56.57873335 64.31127251 61.11591714 68.86165261 65.65060622 C72.78473994 69.56064822 76.70399321 73.47450501 80.62024283 77.39139551 C82.95289343 79.72430112 85.28752652 82.05515962 87.6251297 84.38310432 C90.21739144 86.96563925 92.80332515 89.55434674 95.38769531 92.14477539 C96.16365555 92.91511612 96.93961578 93.68545685 97.73908997 94.47914124 C98.43695114 95.1811969 99.13481232 95.88325256 99.8538208 96.60658264 C100.46505421 97.21727128 101.07628761 97.82795992 101.70604324 98.45715427 C103 100 103 100 103 102 C107.15600412 98.54565892 111.06238201 95.06604827 114.5625 90.9375 C120.64575517 83.82201827 127.06687573 78.97770809 136 76 C149.29492336 75.12608801 160.3609669 76.06690963 170.9921875 84.9453125 C178.405116 92.53130548 181.08322271 101.02451008 181.125 111.4375 C181.0930633 113.62516369 181.05460454 115.81278471 181 118 C180.34 118 179.68 118 179 118 C179 119.093125 179 120.18625 179 121.3125 C177.6355258 131.89184787 167.59504277 139.49926871 160 146 C158.29116161 147.6323803 156.64355418 149.30166069 155 151 C156.64624028 155.28454371 159.87848958 158.10083676 163.09863281 161.23046875 C163.7232692 161.84575943 164.34790558 162.46105011 164.99147034 163.09498596 C166.3475186 164.43004647 167.7057173 165.76292545 169.06580353 167.09387207 C171.22449744 169.20843552 173.37509031 171.33092121 175.52337646 173.45605469 C181.63208179 179.49768341 187.74845332 185.53135378 193.88623047 191.54345703 C197.64286454 195.22431273 201.38431365 198.920047 205.11678314 202.62539673 C206.53525999 204.02787339 207.9592486 205.42479996 209.3890152 206.81576538 C219.94885487 217.09416328 228.94048249 226.71405984 229.34326172 242.22387695 C229.5255242 258.52515294 229.5255242 258.52515294 224 266 C223.56558594 266.69867187 223.13117188 267.39734375 222.68359375 268.1171875 C217.75785524 275.55491232 209.59670874 281.50779453 201 284 C197.55276879 284.43655204 194.15906786 284.47682297 190.6875 284.4375 C189.75196289 284.42920166 188.81642578 284.42090332 187.85253906 284.41235352 C170.28791225 283.98106549 160.1975539 272.50306845 148.484375 260.6796875 C147.29896457 259.49053658 146.11310414 258.30183409 144.92681885 257.11355591 C141.82711526 254.00627527 138.73346234 250.89303999 135.64111328 247.77844238 C132.49615915 244.61298475 129.34550662 241.45321018 126.1953125 238.29296875 C120.6559383 232.73453897 115.12152789 227.17120966 109.59075928 221.60421753 C107.82181237 219.82608145 106.0495672 218.05122203 104.2744751 216.27922058 C102.34481173 214.34553115 100.47017817 212.38475694 98.625 210.37109375 C98.03203125 209.72849609 97.4390625 209.08589844 96.828125 208.42382812 C95.60742727 207.09749309 94.38868087 205.76935954 93.171875 204.43945312 C90.7098171 201.77668399 88.35613591 199.27990057 85.5 197.03515625 C83.3676435 195.29928478 81.85967064 193.72564353 80.11036682 191.63957214 C74.96140649 185.70067749 69.32370802 180.2497471 63.73413086 174.73168945 C62.5011956 173.51051556 61.26854241 172.28905682 60.03614807 171.06733704 C57.39477115 168.44934362 54.75209678 165.83266934 52.10859489 163.21682167 C47.92138437 159.07201474 43.74139411 154.91997787 39.56312561 150.76615906 C38.85568 150.06290176 38.14823439 149.35964447 37.41935104 148.63507634 C35.97347646 147.1977044 34.52762552 145.76030868 33.08179772 144.32288969 C23.36512691 134.66299271 13.6445395 125.00719588 3.90112305 115.37426758 C-2.68641281 108.86132738 -9.26130019 102.33590679 -15.82200903 95.7959401 C-19.28713046 92.34275046 -22.75822239 88.89609918 -26.24489021 85.46465492 C-29.52618485 82.23512007 -32.79042204 78.98925516 -36.0428257 75.73063469 C-37.23229364 74.54466075 -38.42768717 73.36459229 -39.629673 72.19130707 C-50.36680943 61.69877997 -57.00663919 51.34700934 -57.3125 35.8125 C-57.32719051 29.09893645 -56.23593778 23.89184897 -53 18 C-52.61070312 17.24332031 -52.22140625 16.48664063 -51.8203125 15.70703125 C-46.99387326 7.41069634 -38.05873823 -0.11515627 -28.67578125 -2.63671875 C-18.87211152 -3.96772793 -9.1656838 -3.99957111 0 0 Z " fill="#0A0F1E" transform="translate(751,294)"/>
<path d="M0 0 C6.03461851 4.39580455 11.21053947 9.50274709 16.46509647 14.78960991 C17.45941133 15.7828496 18.45415952 16.77565565 19.44930363 17.7680645 C22.13148227 20.44542865 24.80742168 23.12894773 27.48209405 25.81380796 C30.29419458 28.63474873 33.11162332 31.45035911 35.92833805 34.26669121 C40.65657423 38.99586158 45.3809364 43.72887373 50.10279179 48.4644146 C55.54581888 53.92315997 60.99404758 59.37666847 66.44530588 64.82719314 C72.27141756 70.65262688 78.09370598 76.48187045 83.91489196 82.31222582 C85.58244861 83.9819038 87.25070558 85.65087926 88.91912365 87.31969643 C91.5505579 89.95214277 94.1794004 92.5871518 96.80634212 95.22408104 C98.21912619 96.64113111 99.63430042 98.05579698 101.04956913 99.47036552 C105.37562999 103.81797312 109.5322974 108.22978966 113.53062248 112.87877655 C117.0219791 116.80167231 120.80027395 120.44435563 124.54126835 124.12701225 C125.92044942 125.49162315 127.29962559 126.85623901 128.67861736 128.2210412 C130.14644372 129.67302245 131.61544768 131.12380427 133.08463573 132.57440758 C136.16251212 135.61454653 139.23361271 138.66146962 142.30321598 141.70995903 C142.8239041 142.22700976 143.34459221 142.74406048 143.88105875 143.27677941 C144.94494327 144.33325963 146.00881194 145.3897558 147.0726651 146.4462676 C154.2069725 153.53082486 161.3455156 160.61096422 168.50269413 167.67242241 C173.34804475 172.4530731 178.18244537 177.24450825 183.00479263 182.04836535 C185.5489878 184.58195185 188.09823452 187.10991061 190.66105175 189.62467003 C193.52314233 192.43327331 196.3608905 195.26535033 199.19751835 198.0996685 C200.03456806 198.91357552 200.87161777 199.72748253 201.73403263 200.56605339 C211.61086463 210.52895536 215.61719608 220.73082345 215.61719608 234.47149467 C215.42445761 246.0631808 211.68757271 254.70383156 203.30469608 262.87212944 C200.10992197 265.18906022 196.82627698 267.09936082 193.30469608 268.87212944 C192.62922733 269.25369194 191.95375858 269.63525444 191.25782108 270.02837944 C189.30469608 270.87212944 189.30469608 270.87212944 185.30469608 270.87212944 C185.30469608 271.53212944 185.30469608 272.19212944 185.30469608 272.87212944 C170.33028057 273.29460511 158.27713678 271.62249841 146.86885929 261.03756523 C145.40938252 259.59231582 143.9631147 258.13363626 142.52857304 256.66363335 C141.32647442 255.46262993 141.32647442 255.46262993 140.10009098 254.23736382 C137.48567228 251.61949506 134.88935979 248.98443914 132.29297733 246.34869194 C130.47133665 244.51771407 128.64858014 242.68784573 126.82476139 240.8590374 C122.53753329 236.55474731 118.26161144 232.23952349 113.99111384 227.9186424 C109.12310396 222.99447093 104.24064767 218.08472927 99.35701144 213.17606282 C89.32358246 203.09056954 79.30814341 192.98735689 69.30469608 182.87212944 C65.57695939 184.60826715 63.32618004 186.70003193 60.48828983 189.70416069 C59.54946075 190.67806993 58.60998573 191.65135684 57.66993046 192.62408257 C56.21078423 194.1446255 54.75678521 195.66909248 53.31421757 197.20538139 C44.82894919 206.21084187 36.0255908 212.77913127 23.24927616 213.26641655 C12.04950416 213.46958962 3.80841387 211.34313316 -4.63280392 203.49712944 C-11.66917868 195.68846964 -15.21513206 187.79079437 -14.87108517 177.21587944 C-13.69975765 161.59817925 -4.51390888 152.08899998 6.24219608 141.68462944 C7.31930677 140.62764257 8.39548497 139.56970459 9.47071171 138.51080132 C12.07141771 135.9535593 14.68437939 133.40929194 17.30469608 130.87212944 C13.30265983 126.0627113 9.11042767 121.55666833 4.64429569 117.17754936 C4.00771534 116.54885445 3.37113499 115.92015953 2.71526432 115.27241325 C1.34459443 113.91882768 -0.02712099 112.56630015 -1.39978886 111.21474075 C-4.32738163 108.32953355 -7.24540355 105.434726 -10.16406822 102.54049206 C-15.58452184 97.16559388 -21.00866823 91.79456783 -26.44945431 86.44024467 C-30.24743344 82.70188894 -34.03288548 78.95123658 -37.81053638 75.19234467 C-39.24482456 73.76974094 -40.68361994 72.35166555 -42.1271143 70.93840408 C-56.57871456 56.78198307 -56.57871456 56.78198307 -59.69530392 47.87212944 C-60.12842892 46.65525444 -60.56155392 45.43837944 -61.00780392 44.18462944 C-63.26869298 33.21266783 -62.51180816 22.53918662 -56.69530392 12.87212944 C-43.27406346 -5.42956209 -20.28078299 -13.49262385 0 0 Z " fill="#0A0F1E" transform="translate(363.69530391693115,674.1278705596924)"/>
<path d="M0 0 C0.66 0.33 1.32 0.66 2 1 C-2.04707711 5.8205799 -6.28852944 10.43823439 -10.6875 14.9375 C-11.59886719 15.87464844 -12.51023437 16.81179688 -13.44921875 17.77734375 C-15.92806036 19.93731446 -16.92238355 20.39623362 -20 21 C-15.76183463 15.93376232 -11.32591037 11.19961931 -6.625 6.5625 C-5.98433594 5.92634766 -5.34367187 5.29019531 -4.68359375 4.63476562 C-3.12469121 3.08749668 -1.56348584 1.54263508 0 0 Z " fill="#E48E16" transform="translate(431,856)"/>
<path d="M0 0 C10.24714829 8.57414449 10.24714829 8.57414449 14 13 C14 13.66 14 14.32 14 15 C14.639375 15.2475 15.27875 15.495 15.9375 15.75 C18 17 18 17 18.62890625 19.078125 C18.75136719 19.71234375 18.87382812 20.3465625 19 21 C14.30108975 17.15543707 9.89639859 13.05936224 5.5625 8.8125 C5.01819336 8.28946289 4.47388672 7.76642578 3.91308594 7.22753906 C2.54923989 5.87584696 1.26754855 4.44238283 0 3 C0 2.01 0 1.02 0 0 Z " fill="#D58712" transform="translate(475,783)"/>
<path d="M0 0 C0 3 0 3 -2.1875 5.48046875 C-3.115625 6.37378906 -4.04375 7.26710938 -5 8.1875 C-5.928125 9.08855469 -6.85625 9.98960937 -7.8125 10.91796875 C-8.534375 11.60503906 -9.25625 12.29210937 -10 13 C-10.66 12.34 -11.32 11.68 -12 11 C-10.37807179 9.35113941 -8.75236228 7.7059976 -7.125 6.0625 C-6.22007812 5.14597656 -5.31515625 4.22945313 -4.3828125 3.28515625 C-2 1 -2 1 0 0 Z " fill="#2A201F" transform="translate(875,376)"/>
<path d="M0 0 C0.66 0.66 1.32 1.32 2 2 C-0.31 4.64 -2.62 7.28 -5 10 C-5.66 9.01 -6.32 8.02 -7 7 C-4.69 4.69 -2.38 2.38 0 0 Z " fill="#121624" transform="translate(342,301)"/>
<path d="M0 0 C0.33 0 0.66 0 1 0 C1.38281159 5.23175837 0.21854707 8.37802694 -2 13 C-2.33 13 -2.66 13 -3 13 C-2.88490339 11.58249437 -2.75746342 10.16598831 -2.625 8.75 C-2.55539062 7.96109375 -2.48578125 7.1721875 -2.4140625 6.359375 C-1.98492887 3.914123 -1.21399362 2.15163097 0 0 Z " fill="#2D2318" transform="translate(979,544)"/>
<path d="M0 0 C1.32 0.33 2.64 0.66 4 1 C4 1.66 4 2.32 4 3 C4.61875 3.268125 5.2375 3.53625 5.875 3.8125 C8 5 8 5 10 8 C7 8 7 8 5.17578125 6.50390625 C4.56089844 5.86324219 3.94601562 5.22257813 3.3125 4.5625 C2.68988281 3.92441406 2.06726563 3.28632812 1.42578125 2.62890625 C0 1 0 1 0 0 Z " fill="#31231C" transform="translate(863,517)"/>
<path d="M0 0 C1.17539996 0.92652701 2.34010577 1.86663387 3.5 2.8125 C4.1496875 3.33457031 4.799375 3.85664062 5.46875 4.39453125 C7 6 7 6 7 9 C0.70535714 4.17857143 0.70535714 4.17857143 0 0 Z " fill="#D78815" transform="translate(322,745)"/>
<path d="M0 0 C2.88437779 1.29299694 4.87219421 2.65941363 7 5 C6.67 5.99 6.34 6.98 6 8 C4.99403703 7.0479279 3.99538437 6.08812654 3 5.125 C2.443125 4.59132813 1.88625 4.05765625 1.3125 3.5078125 C0 2 0 2 0 0 Z " fill="#261B1B" transform="translate(908,561)"/>
<path d="M0 0 C0.99 0.33 1.98 0.66 3 1 C3 3.64 3 6.28 3 9 C0.90250005 6.64031256 0.03094296 5.45383006 -0.1875 2.25 C-0.125625 1.5075 -0.06375 0.765 0 0 Z " fill="#141423" transform="translate(326,342)"/>
<path d="M0 0 C3.36720387 1.39332574 4.9859524 2.9789286 7 6 C6.01 6.495 6.01 6.495 5 7 C3.29115995 5.37660195 1.62553283 3.70680947 0 2 C0 1.34 0 0.68 0 0 Z " fill="#E58E0E" transform="translate(375,799)"/>
<path d="M0 0 C3.25543229 0.34879632 4.01873107 1.02133261 6.25 3.5625 C6.8275 4.366875 7.405 5.17125 8 6 C5 6 5 6 3.61328125 4.6875 C2.40885417 3.125 1.20442708 1.5625 0 0 Z " fill="#15151F" transform="translate(659,562)"/>
<path d="M0 0 C1.98 1.65 3.96 3.3 6 5 C5.67 5.99 5.34 6.98 5 8 C3.02 5.69 1.04 3.38 -1 1 C-0.67 0.67 -0.34 0.34 0 0 Z " fill="#2E221F" transform="translate(894,546)"/>
</svg>
